<svg width="34" height="34" viewBox="0 0 34 34" fill="none" xmlns="http://www.w3.org/2000/svg">
<g id="icon/github">
<path id="vector" fill-rule="evenodd" clip-rule="evenodd" d="M17 3.1828C9.17293 3.1828 2.83334 9.52238 2.83334 17.3495C2.83334 23.6182 6.88855 28.913 12.5198 30.7901C13.2281 30.914 13.4938 30.489 13.4938 30.1172C13.4938 29.7807 13.4761 28.6651 13.4761 27.4786C9.91668 28.1338 8.99584 26.6109 8.71251 25.814C8.55313 25.4068 7.86251 24.1495 7.26043 23.813C6.76459 23.5474 6.05626 22.8922 7.24272 22.8745C8.35834 22.8568 9.15522 23.9015 9.42084 24.3265C10.6958 26.4693 12.7323 25.8672 13.5469 25.4953C13.6708 24.5745 14.0427 23.9547 14.45 23.6005C11.2979 23.2463 8.00418 22.0245 8.00418 16.6057C8.00418 15.0651 8.55313 13.7901 9.45626 12.7984C9.31459 12.4443 8.81876 10.9922 9.59793 9.04426C9.59793 9.04426 10.7844 8.67238 13.4938 10.4963C14.6271 10.1776 15.8313 10.0182 17.0354 10.0182C18.2396 10.0182 19.4438 10.1776 20.5771 10.4963C23.2865 8.65468 24.4729 9.04426 24.4729 9.04426C25.2521 10.9922 24.7563 12.4443 24.6146 12.7984C25.5177 13.7901 26.0667 15.0474 26.0667 16.6057C26.0667 22.0422 22.7552 23.2463 19.6031 23.6005C20.1167 24.0432 20.5594 24.8932 20.5594 26.2213C20.5594 28.1161 20.5417 29.639 20.5417 30.1172C20.5417 30.489 20.8073 30.9318 21.5156 30.7901C24.328 29.8407 26.7718 28.0332 28.5031 25.6221C30.2343 23.211 31.1659 20.3177 31.1667 17.3495C31.1667 9.52238 24.8271 3.1828 17 3.1828Z" fill="#2899F0"/>
</g>
</svg>
