<svg width="25" height="25" viewBox="0 0 25 25" fill="none" xmlns="http://www.w3.org/2000/svg">
<path id="vector" d="M25 1.83824V23.1618C25 23.6493 24.8063 24.1169 24.4616 24.4616C24.1169 24.8063 23.6493 25 23.1618 25H1.83824C1.3507 25 0.883143 24.8063 0.538407 24.4616C0.193671 24.1169 0 23.6493 0 23.1618L0 1.83824C0 1.3507 0.193671 0.883143 0.538407 0.538407C0.883143 0.193671 1.3507 0 1.83824 0L23.1618 0C23.6493 0 24.1169 0.193671 24.4616 0.538407C24.8063 0.883143 25 1.3507 25 1.83824ZM7.35294 9.55882H3.67647V21.3235H7.35294V9.55882ZM7.68382 5.51471C7.68576 5.23661 7.6329 4.96086 7.52827 4.70319C7.42363 4.44552 7.26927 4.21099 7.07399 4.01298C6.87872 3.81497 6.64635 3.65737 6.39016 3.54916C6.13397 3.44096 5.85898 3.38428 5.58088 3.38235H5.51471C4.94917 3.38235 4.4068 3.60701 4.0069 4.0069C3.60701 4.4068 3.38235 4.94917 3.38235 5.51471C3.38235 6.08024 3.60701 6.62261 4.0069 7.02251C4.4068 7.4224 4.94917 7.64706 5.51471 7.64706C5.79282 7.6539 6.06956 7.60588 6.3291 7.50573C6.58865 7.40558 6.82592 7.25528 7.02736 7.0634C7.2288 6.87152 7.39046 6.64183 7.5031 6.38745C7.61573 6.13308 7.67715 5.859 7.68382 5.58088V5.51471ZM21.3235 14.1765C21.3235 10.6397 19.0735 9.26471 16.8382 9.26471C16.1064 9.22806 15.3777 9.38394 14.7248 9.71681C14.072 10.0497 13.5178 10.5479 13.1176 11.1618H13.0147V9.55882H9.55882V21.3235H13.2353V15.0662C13.1821 14.4253 13.384 13.7894 13.797 13.2965C14.2101 12.8036 14.8009 12.4936 15.4412 12.4338H15.5809C16.75 12.4338 17.6176 13.1691 17.6176 15.0221V21.3235H21.2941L21.3235 14.1765Z" fill="#2899F0"/>
</svg>
